/* XPM */
static const char *collectible[] = {
/* columns rows colors chars-per-pixel */
"64 64 70 1 ",
"  c #26AC5F",
". c #27AF61",
"X c #28B363",
"o c #29B765",
"O c #2ABB67",
"+ c #2BBF69",
"@ c #2BC36C",
"# c #2CC36C",
"$ c #2CC76E",
"% c #2ECC71",
"& c #39C876",
"* c #3BCF79",
"= c #5CC087",
"- c #5DC388",
"; c #5DC68A",
": c #5EC98B",
"> c #5FCC8D",
", c #48D282",
"< c #55D58B",
"1 c #60CF8E",
"2 c #60D290",
"3 c #62D894",
"4 c #6FDB9D",
"5 c #7AD9A3",
"6 c #7CDFA6",
"7 c #89E2AF",
"8 c #95E1B5",
"9 c #96E5B8",
"0 c #A3E8C0",
"q c #AFEAC8",
"w c #B0EBC9",
"e c #BDEFD2",
"r c #A2E7EE",
"t c #A4E7EE",
"y c #A5E8EF",
"u c #A7E9F0",
"i c #A9EAF1",
"p c #ACEBF2",
"a c #AEECF3",
"s c #B3EBF1",
"d c #B3EDF4",
"f c #B9EDF2",
"g c #BFEEF3",
"h c #B8EEF4",
"j c #BDF0F5",
"k c #CAF2DB",
"l c #D7F4E3",
"z c #D7F5E4",
"x c #C0EFF4",
"c c #C2F1F6",
"v c #C5F0F4",
"b c #CAF1F5",
"n c #CCF3F7",
"m c #D0F3F6",
"M c #D1F4F8",
"N c #D7F5F8",
"B c #DBF7FA",
"V c #DCF6F9",
"C c #E4F8ED",
"Z c #E2F7FA",
"A c #E1F8FA",
"S c #E6F9FB",
"D c #E8F9FB",
"F c #EBFAFC",
"G c #EDFAFC",
"H c #F1FBF6",
"J c #F0FBFD",
"K c #F5FDFD",
"L c #FAFEFE",
"P c white",
/* pixels */
"rrrrrrrrrrrrrrrrrrrrrrrrrrrrrrrrrrrrrrrrrrrrrrrrrrrrrrrrrrrrrrrr",
"rrrrrrrrrrrrrrrrrrrrrrrrrrrrrrrrrrrrrrrryuiipaaaaaaapiiytrrrrrrr",
"rrrrrrrrrrrrrrrrrrrrrrrrrrrrrrrrrrrrryipaaaaaaaaaaaaaaaaaiirrrrr",
"rrrrrrrrrrrrrrrrrrrrrrrrrrrrrrrrrryiaaaaaaaaaaaaaaaaaaaaaaaapyrr",
"rrrrrrrrrrrrrrrrrrrrrrrrrrrrrrrrypaaaaaaaaaaaaaaaaaaaaaaaaaaaapu",
"iyrrrrrrrrrrrrrrrrrrrrrrrrrrrryiaaaaaaaaaaaaaaaaaaaaaaaaaaaaaaaa",
"aapyrrrrrrrrrrrrrrrrrrrrrrrrriaaaaaaaaaaaaaaaaaaaaaaaaaaaaaaaaaa",
"aaaaaiyrrrrrrrrrrrrrrrrrrrypaaaaaaaaaaaaaaaaaaaaaaaaaaaaaaaaaaaa",
"aaaaaaaaiutrrrrrrrrrrryiiaaaaaaaaaaaaaaaaaaaaaaaaaaaaaaaaaaaaaaa",
"aaaaaaaaaaaaiiiiiiiiiaaaaaaaaaaaaaaaaaaaaaaaaaaaaaaaaaaaaaaaaaaa",
"aaaaaaaaaaaaaaaaaaaaaaaaaaaaaaaaaaaaaaaaaaiiiiiiiiiiiiiaaaaaaaaa",
"aaaaaaaaaaaaaaaaaaaaaaaaaaaaaaaaaaaaaaiytrrrrrrrrrrrrrrrtuipaaaa",
"aaaaaaaaaaaaaaaaaaaaaaaaaaaaaaaaaaapurrrrrrrrrrrrrrrrrrrrrrrypaa",
"aaaaaaaaaaaaaaaaaaaaaaaaaaaaaaaapitrrrrrrrrrrrrrrrrrrrrrrrrrrryi",
"yipaaaaaaaaaaaaaaaaaaaaaaaaaaaiyrrrrrrrrrrtyuiiiiiiiuyrrrrrrrrrr",
"rrrypaaaaaaaaaaaaaaaaaaaaaaairrrrrrrrrryipaaaaaaaaaaaaapiyrrrrrr",
"rrrrrruipaaaaaaaaaaaaaaapiyrrrrrrrrripaaaaaaaaaaaaaaaaaaaaaiyrrr",
"rrrrrrrrrryiiiiiiiiiiiyrrrrrrrrrryiaaaaaaaaaaaaaaaaaaaaaaaaaaiir",
"yrrrrrrrrrrrrrrrryvVDDDDZbprrrrypaaaaaaaaaaaaaaaaaaaaaaaaaaaaaap",
"apyrrrrrrrrrrrrymPPPPPPPPPPZpyiaaaaaaaaaaaaaaaaaaaaaaaaaaaaaaaaa",
"aaapirrrrrrrrrrDPPPPPPPPPPPPLdaaaaaaaaaaaaaaaaaaaaaaaaaaaaaaaaaa",
"aaaaaaiitrrrrrVPPPz733336ePPPJhaaaaaaaaaaaaaaaaaaaaaaaaaaaaaaaaa",
"aaaaaaaaapiiyNPPP7%%%%%%%%<PPPLjaaaaaaaaaaaaaaaaaaaaaaaaaaaaaaaa",
"aaaaaaaaaaaanPPPw%%%%%%%%%%6PPPFaaaaaaaaaaaaaaaaaaaaaaaaaaaaaaaa",
"aaaaaaaaaaahLPPw%%%%%%%%%%%%6PPPcaaaaaaaaaaaaaaaaaaaaaaaaaaaaaaa",
"aaaaaaaaaaaAPPz%%%%%%%%%%%%%%9PPKaaaaaaaaaaaaaaaaaaaaaaaaaaaaaaa",
"aaaaaaaaaadPPP3%%%%%%%%%%%%%%%CPPPPPPPPPPPPPPPPPJFBdaaaaaaaaaaaa",
"aaaaaaaaaaMPPz%%%%%%%%%%%%%%%%7PPPPPPPPPPPPPPPPPPPPJjaaaaaaaaaaa",
"aaaaaaaaaaSPP7%%%%%%4PP0%%%%%%,PPPPPPPPPPPPPPPPPPPPPJaaaaaaaaaaa",
"aaaaaaaaaaKPP3%%%%%*HPPP3%%%%%%%%%%%%%%%%%%%%%%%,4zPPcaaaaaaaaaa",
"aaaaaaaaaaPPP%%%%%%7PPPPe%%%%%%%%%%%%%%%%%%%%%%%%%6PPSaaaaaaaaaa",
"aaaaaaaaaaPPP%%%%%%kPPPPP%%%%%%%%%%%%%%%%%%%%%%%%%%PPPaaaaaaaaaa",
"aaaaaaaaaaPPP%%%%%%kPPPPP%%%%%%%%%%%%%%%%%%%%%%%%%%PPPaaaaaaaaaa",
"aaaaaaaaaaPPP%%%%%%kPPPPC%%%%%%%%%%%%%%%%%%%%%%%%%*PPPaaaaaaaaaa",
"aaaaaaaaaaPPP*%%%%%7PPPPw%%%%%%%%%%%%%%%%%%%%%%%%%6PPJaaaaaaaaaa",
"aaaaaaaaaaFPP3%%%%%,HPPP3%%%%%%333333&##########&6PPPNaaaaaaaaaa",
"aaaaaaaaaaAPP9%%%%%%7PPe%%%%%%,PPPPPP=          =PPPJdaaaaaaaaaa",
"aaaaaaaaaanPPz%%%%%%%<3%%%%%%%7PPPPPP-..........-PPKdaaaaaaaaaaa",
"aaaaaaaaaadPPP,%%%%%%%%%%%%%%%CPPJLPP;XXXXXXXXXX;PPFaaaaaaaaaaaa",
"aaaaaaaaaaaAPPk%%%%%%%%%%%%%%7PPLdFPP:oooooooooo:PPDrrriipaaaaaa",
"aaaaaaaaaaajPPP6%%%%%%%%%%%%<HPPMaFPP>OOOOOOOOOO>PPDrrrrrrtipaaa",
"aaaaaaaaaaaaBPPP4%%%%%%%%%%,HPPKaaDPP1++++++++++1PPDrrrrrrrrryia",
"ipaaaaaaaaaadBPPH7%%%%%%%%<CPPLxurDPP2@@@5885@@@2PPDrrrrrrrrrrry",
"rripaaaaaaaaaaFPPPk4%%%%<wPPPPvrrrVPPe$$$lPPC$$$qPPZrrrrrrrrrrrr",
"rrrryipaaaaaaadSPPPPPPPPPPPPLgrrrrvPPPPPPPPPPPPPPPPbrrrrrrrrrrrr",
"rrrrrrrtyipaaaaaMLPPPPPPPPPDsrrrrrrGPPPPPPPPPPPPPPLyrrrrrrrrrrrr",
"rrrrrrrrrrrrtyyyyiNKPPPPPZfrrrrrrrryVPPPPPPPPPPPPDsrrrrrrrrrrrrr",
"rrrrrrrrrrrrrrrrrrrrrrrrrrrrrrrrrrrrrrrryuiipaaaaaaapiiytrrrrrrr",
"rrrrrrrrrrrrrrrrrrrrrrrrrrrrrrrrrrrrryipaaaaaaaaaaaaaaaaaiirrrrr",
"rrrrrrrrrrrrrrrrrrrrrrrrrrrrrrrrrryiaaaaaaaaaaaaaaaaaaaaaaaapyrr",
"rrrrrrrrrrrrrrrrrrrrrrrrrrrrrrrrypaaaaaaaaaaaaaaaaaaaaaaaaaaaapu",
"iyrrrrrrrrrrrrrrrrrrrrrrrrrrrryiaaaaaaaaaaaaaaaaaaaaaaaaaaaaaaaa",
"aapyrrrrrrrrrrrrrrrrrrrrrrrrriaaaaaaaaaaaaaaaaaaaaaaaaaaaaaaaaaa",
"aaaaaiyrrrrrrrrrrrrrrrrrrrypaaaaaaaaaaaaaaaaaaaaaaaaaaaaaaaaaaaa",
"aaaaaaaaiutrrrrrrrrrrryiiaaaaaaaaaaaaaaaaaaaaaaaaaaaaaaaaaaaaaaa",
"aaaaaaaaaaaaiiiiiiiiiaaaaaaaaaaaaaaaaaaaaaaaaaaaaaaaaaaaaaaaaaaa",
"aaaaaaaaaaaaaaaaaaaaaaaaaaaaaaaaaaaaaaaaaaiiiiiiiiiiiiiaaaaaaaaa",
"aaaaaaaaaaaaaaaaaaaaaaaaaaaaaaaaaaaaaaiytrrrrrrrrrrrrrrrtuipaaaa",
"aaaaaaaaaaaaaaaaaaaaaaaaaaaaaaaaaaapurrrrrrrrrrrrrrrrrrrrrrrypaa",
"aaaaaaaaaaaaaaaaaaaaaaaaaaaaaaaapitrrrrrrrrrrrrrrrrrrrrrrrrrrryi",
"yipaaaaaaaaaaaaaaaaaaaaaaaaaaaiyrrrrrrrrrrrrrrrrrrrrrrrrrrrrrrrr",
"rrrypaaaaaaaaaaaaaaaaaaaaaaairrrrrrrrrrrrrrrrrrrrrrrrrrrrrrrrrrr",
"rrrrrruipaaaaaaaaaaaaaaapiyrrrrrrrrrrrrrrrrrrrrrrrrrrrrrrrrrrrrr",
"rrrrrrrrrryiiiiiiiiiiiyrrrrrrrrrrrrrrrrrrrrrrrrrrrrrrrrrrrrrrrrr"
};
