/* XPM */
static const char *exit[] = {
/* columns rows colors chars-per-pixel */
"64 64 76 1 ",
"  c #BB5512",
". c #BD5612",
"X c #B7591B",
"o c #B45E24",
"O c #B1632D",
"+ c #BF6A2F",
"@ c #AE6837",
"# c #C05712",
"$ c #C35812",
"% c #C65A13",
"& c #C95B13",
"* c #CB5C13",
"= c #CE5E14",
"- c #D15F14",
"; c #D76215",
": c #D96315",
"> c #DC6415",
", c #E26716",
"< c #E56816",
"1 c #E86A17",
"2 c #C26B2F",
"3 c #AB6D40",
"4 c #AE6F40",
"5 c #A87249",
"6 c #A57752",
"7 c #A27C5C",
"8 c #9E8165",
"9 c #9B866E",
"0 c #988B77",
"q c #959081",
"w c #92958A",
"e c #8F9A93",
"r c #8C9F9C",
"t c #89A4A6",
"y c #8BA7A9",
"u c #8EABAD",
"i c #90ACAE",
"p c #91AEB0",
"a c #93B0B2",
"s c #94B2B4",
"d c #97B5B7",
"f c #9AB9BB",
"g c #9BBABC",
"h c #9DBCBE",
"j c #99BEC2",
"k c #9EBEC0",
"l c #A0C0C2",
"z c #A0C3C4",
"x c #A0C7C9",
"c c #A3C8CA",
"v c #A1CACD",
"b c #A4CBCE",
"n c #A1CFD3",
"m c #A4CDD1",
"M c #A5D1D4",
"N c #A2D6DA",
"B c #A8D7DB",
"V c #A2D9DD",
"C c #A7DBDF",
"Z c #A8D9DD",
"A c #A2DCE0",
"S c #A9DBE0",
"D c #A9DCE0",
"F c #AADFE4",
"G c #A2E0E6",
"H c #ABE2E7",
"J c #A2E3E9",
"K c #A2E7EE",
"L c #A4E7EE",
"P c #ACE4EA",
"I c #ADE7ED",
"U c #A5E8EF",
"Y c #A7E9F0",
"T c #A9EAF1",
"R c #ACEBF2",
"E c #AEECF3",
/* pixels */
"KKKKKKKKKKKKKKKKKKKKKJNNnvvvvllllllllvvnNAKKKKKKKKKKKKKKKKKKKKKK",
"KKKKKKKKKKKKKKKKKKKnzllllllllllllllllllllllvSIEEEEEERTTULKKKKKKK",
"KKKKKKKKKKKKKKKKJnzlllgfdssssuuuuuuuusssfkllllbFEEEEEEEEETTKKKKK",
"KKKKKKKKKKKKKKGvllldiyttttttttttttttttttttyaglllbFEEEEEEEEEERUKK",
"KKKKKKKKKKKKKnllkdittttttttttttttttttttttttttyakllmREEEEEEEEEERY",
"TUKKKKKKKKKAzlhpttttttttttttttttttttttttttttttttaklzDEEEEEEEEEEE",
"EERUKKKKKKnllsttttttttttttttttttttttttttttttttttttsllBEEEEEEEEEE",
"EEEEETUKKnlkittttttttttttttttttttttttttttttttttttttsllZEEEEEEEEE",
"EEEEEEEEMlfyttttttttttttttttttttttttttttttttttttttttuklMEEEEEEEE",
"EEEEEEEMldttttttttttttttttttttttttttttttttttttttttttttglMEEEEEEE",
"EEEEEEMldtttttttttttttrq8@@@@       @770rttttttttttttttdlMEEEEEE",
"EEEEEDldttttttttttttw5o                  O9rttttttttttttdlCREEEE",
"EEEEPzdtttttttttttt@    $---->>>>>>>-%%.   X7rtttttttttttdzGUREE",
"EEEEcgttttttttttt0o  *:11111111111111111>;#  owtttttttttttgxKKUT",
"UTRZkytttttttttt7  -<1111111111111111111111>%  8ttttttttttykNKKK",
"KKKzitttttttttt6 #;11111111111111111111111111:. 7ttttttttttizKKK",
"KKNftttttttttt5 %<1111111111111111111111111111,$ 9ttttttttttfNKK",
"KKzyttttttttt8 &11111111111111111111111111111111& qtttttttttyzTK",
"UVdttttttttte *111111111111111111111111111111111<$XrtttttttttdDR",
"Emyttttttttt@$11111111111111111111111111111111111<$@tttttttttymE",
"Eftttttttttq.,11111111111>;--%%%%%%&:>111111111111>.qtttttttttfE",
"Hpttttttttt@;111111111<;.              %;1111111111-3tttttttttpH",
"Btttttttttr#111111111>$                  %<11111111<.etttttttttB",
"vttttttttt9;11111111<.                    .<11111111;8tttttttttv",
"jttttttttt411111111<$                      $11111111<5tttttttttj",
"pttttttttt211111111&                        =11111111+tttttttttp",
"uttttttttt;1111111,                          ,1111111;tttttttttu",
"tttttttttt>1111111=                          -1111111>tttttttttt",
"tttttttttt11111111#                          %1111111<tttttttttt",
"tttttttttt11111111                            11111111tttttttttt",
"tttttttttt11111111                            11111111tttttttttt",
"tttttttttt11111111                            11111111tttttttttt",
"tttttttttt11111111                            11111111tttttttttt",
"tttttttttt11111111                            11111111tttttttttt",
"tttttttttt11111111                            11111111tttttttttt",
"tttttttttt11111111                            11111111tttttttttt",
"tttttttttt11111111                            11111111tttttttttt",
"tttttttttt11111111                            11111111tttttttttt",
"tttttttttt11111111                            11111111tttttttttt",
"tttttttttt11111111                            11111111tttttttttt",
"tttttttttt11111111                            11111111tttttttttt",
"tttttttttt11111111                            11111111tttttttttt",
"tttttttttt11111111                            11111111tttttttttt",
"tttttttttt11111111                            11111111tttttttttt",
"tttttttttt11111111                            11111111tttttttttt",
"tttttttttt11111111                            11111111tttttttttt",
"tttttttttt11111111                            11111111tttttttttt",
"tttttttttt11111111                            11111111tttttttttt",
"tttttttttt11111111                            11111111tttttttttt",
"tttttttttt11111111                            11111111tttttttttt",
"tttttttttt11111111                            11111111tttttttttt",
"tttttttttt11111111                            11111111tttttttttt",
"tttttttttt11111111                            11111111tttttttttt",
"tttttttttt11111111                            11111111tttttttttt",
"tttttttttt11111111                            11111111tttttttttt",
"tttttttttt11111111                            11111111tttttttttt",
"tttttttttt11111111111111111111111111111111111111111111tttttttttt",
"tttttttttt11111111111111111111111111111111111111111111tttttttttt",
"tttttttttt11111111111111111111111111111111111111111111tttttttttt",
"tttttttttt11111111111111111111111111111111111111111111tttttttttt",
"tttttttttt11111111111111111111111111111111111111111111tttttttttt",
"tttttttttt11111111111111111111111111111111111111111111tttttttttt",
"tttttttttt11111111111111111111111111111111111111111111tttttttttt",
"tttttttttt11111111111111111111111111111111111111111111tttttttttt"
};
