/* XPM */
static const char *exit_open[] = {
/* columns rows colors chars-per-pixel */
"64 64 73 1 ",
"  c #25A85D",
". c #26AC5F",
"X c #2BA761",
"o c #26AE60",
"O c #31A766",
"+ c #37A76A",
"@ c #3EA76F",
"# c #27B162",
"$ c #28B564",
"% c #29BA67",
"& c #2ABE69",
"* c #3AB270",
"= c #3BB472",
"- c #44A673",
"; c #44A975",
": c #4AA678",
"> c #50A67C",
", c #2BC06A",
"< c #2BC36C",
"1 c #2CC56D",
"2 c #2DC96F",
"3 c #2ECC71",
"4 c #57A681",
"5 c #5DA586",
"6 c #63A58A",
"7 c #69A58F",
"8 c #70A593",
"9 c #76A498",
"0 c #7CA49C",
"q c #82A4A1",
"w c #89A4A6",
"e c #8BA7A9",
"r c #8EABAD",
"t c #90ACAE",
"y c #91AEB0",
"u c #93B0B2",
"i c #94B2B4",
"p c #97B5B7",
"a c #9AB9BB",
"s c #9BBABC",
"d c #9DBCBE",
"f c #99BEC2",
"g c #9EBEC0",
"h c #A0C0C2",
"j c #A0C3C4",
"k c #A0C7C9",
"l c #A3C8CA",
"z c #A1CACD",
"x c #A4CBCE",
"c c #A1CFD3",
"v c #A4CDD1",
"b c #A5D1D4",
"n c #A2D6DA",
"m c #A8D7DB",
"M c #A2D9DD",
"N c #A7DBDF",
"B c #A8D9DD",
"V c #A2DCE0",
"C c #A9DBE0",
"Z c #A9DCE0",
"A c #AADFE4",
"S c #A2E0E6",
"D c #ABE2E7",
"F c #A2E3E9",
"G c #A2E7EE",
"H c #A4E7EE",
"J c #ACE4EA",
"K c #ADE7ED",
"L c #A5E8EF",
"P c #A7E9F0",
"I c #A9EAF1",
"U c #ACEBF2",
"Y c #AEECF3",
/* pixels */
"GGGGGGGGGGGGGGGGGGGGGFnnczzzzhhhhhhhhzzcnVGGGGGGGGGGGGGGGGGGGGGG",
"GGGGGGGGGGGGGGGGGGGcjhhhhhhhhhhhhhhhhhhhhhhzCKYYYYYYUIILHGGGGGGG",
"GGGGGGGGGGGGGGGGFcjhhhsapiiiirrrrrrrriiiaghhhhxAYYYYYYYYYIIGGGGG",
"GGGGGGGGGGGGGGSzhhhptewwwwwwwwwwwwwwwwwwwweushhhxAYYYYYYYYYYULGG",
"GGGGGGGGGGGGGchhgptwwwwwwwwwwwwwwwwwwwwwwwwwweughhvUYYYYYYYYYYUP",
"ILGGGGGGGGGVjhdywwwwwwwwwwwwwwwwwwwwwwwwwwwwwwwwughjZYYYYYYYYYYY",
"YYULGGGGGGchhiwwwwwwwwwwwwwwwwwwwwwwwwwwwwwwwwwwwwihhmYYYYYYYYYY",
"YYYYYILGGchgtwwwwwwwwwwwwwwwwwwwwwwwwwwwwwwwwwwwwwwihhBYYYYYYYYY",
"YYYYYYYYbhaewwwwwwwwwwwwwwwwwwwwwwwwwwwwwwwwwwwwwwwwrghbYYYYYYYY",
"YYYYYYYbhpwwwwwwwwwwwwwwwwwwwwwwwwwwwwwwwwwwwwwwwwwwwwshbYYYYYYY",
"YYYYYYbhpwwwwwwwwwwwwwq85@@@@       @447qwwwwwwwwwwwwwwphbYYYYYY",
"YYYYYZhpwwwwwwwwwwww9:O                  +6qwwwwwwwwwwwwphNUYYYY",
"YYYYJjpwwwwwwwwwwww@    o%%%%<<<<<<<%##    X4qwwwwwwwwwwwpjSLUYY",
"YYYYlswwwwwwwwwww7O  $,333333333333333331&.  O9wwwwwwwwwwwskGGLI",
"LIUBgewwwwwwwwww4  %23333333333333333333333<#  5wwwwwwwwwwegnGGG",
"GGGjtwwwwwwwwww> .&33333333333333333333333333,  4wwwwwwwwwwtjGGG",
"GGnawwwwwwwwww: #233333333333333333333333333331o 6wwwwwwwwwwanGG",
"GGjewwwwwwwww5 #33333333333333333333333333333333# 8wwwwwwwwwejIG",
"LMpwwwwwwwww0 $3333333333333333333333333333333332oXqwwwwwwwwwpZU",
"Yvewwwwwwwww@o333333333333333333333333333333333332o@wwwwwwwwwevY",
"Yawwwwwwwww8 1333333333331&%%#######,<3333333333331 8wwwwwwwwwaY",
"Dywwwwwwwww@&3333333332&               #&3333333333%-wwwwwwwwwyD",
"mwwwwwwwwwq.3333333331o                  #2333333332 0wwwwwwwwwm",
"zwwwwwwwww6&333333332                      233333333&5wwwwwwwwwz",
"fwwwwwwwww;333333332o                      o333333332:wwwwwwwwwf",
"ywwwwwwwww=33333333#                        $33333333*wwwwwwwwwy",
"rwwwwwwwww&33333331                          13333333&wwwwwwwwwr",
"wwwwwwwwww<3333333$                          %3333333<wwwwwwwwww",
"wwwwwwwwww33333333.                          #33333332wwwwwwwwww",
"wwwwwwwwww33333333                            33333333wwwwwwwwww",
"wwwwwwwwww33333333                            33333333wwwwwwwwww",
"wwwwwwwwww33333333                            33333333wwwwwwwwww",
"wwwwwwwwww33333333                            33333333wwwwwwwwww",
"wwwwwwwwww33333333                            33333333wwwwwwwwww",
"wwwwwwwwww33333333                            33333333wwwwwwwwww",
"wwwwwwwwww33333333                            33333333wwwwwwwwww",
"wwwwwwwwww33333333                            33333333wwwwwwwwww",
"wwwwwwwwww33333333                            33333333wwwwwwwwww",
"wwwwwwwwww33333333                            33333333wwwwwwwwww",
"wwwwwwwwww33333333                            33333333wwwwwwwwww",
"wwwwwwwwww33333333                            33333333wwwwwwwwww",
"wwwwwwwwww33333333                            33333333wwwwwwwwww",
"wwwwwwwwww33333333                            33333333wwwwwwwwww",
"wwwwwwwwww33333333                            33333333wwwwwwwwww",
"wwwwwwwwww33333333                            33333333wwwwwwwwww",
"wwwwwwwwww33333333                            33333333wwwwwwwwww",
"wwwwwwwwww33333333                            33333333wwwwwwwwww",
"wwwwwwwwww33333333                            33333333wwwwwwwwww",
"wwwwwwwwww33333333                            33333333wwwwwwwwww",
"wwwwwwwwww33333333                            33333333wwwwwwwwww",
"wwwwwwwwww33333333                            33333333wwwwwwwwww",
"wwwwwwwwww33333333                            33333333wwwwwwwwww",
"wwwwwwwwww33333333                            33333333wwwwwwwwww",
"wwwwwwwwww33333333                            33333333wwwwwwwwww",
"wwwwwwwwww33333333                            33333333wwwwwwwwww",
"wwwwwwwwww33333333                            33333333wwwwwwwwww",
"wwwwwwwwww33333333333333333333333333333333333333333333wwwwwwwwww",
"wwwwwwwwww33333333333333333333333333333333333333333333wwwwwwwwww",
"wwwwwwwwww33333333333333333333333333333333333333333333wwwwwwwwww",
"wwwwwwwwww33333333333333333333333333333333333333333333wwwwwwwwww",
"wwwwwwwwww33333333333333333333333333333333333333333333wwwwwwwwww",
"wwwwwwwwww33333333333333333333333333333333333333333333wwwwwwwwww",
"wwwwwwwwww33333333333333333333333333333333333333333333wwwwwwwwww",
"wwwwwwwwww33333333333333333333333333333333333333333333wwwwwwwwww"
};
