/* XPM */
static const char *player[] = {
/* columns rows colors chars-per-pixel */
"64 64 192 2 ",
"   c #2B330D",
".  c #30380F",
"X  c #343C11",
"o  c #3A4214",
"O  c #3F4918",
"+  c #46511B",
"@  c #4A561E",
"#  c #525E22",
"$  c #596626",
"%  c #606E2A",
"&  c #67752E",
"*  c #707F32",
"=  c #6C7B31",
"-  c #6C5D5E",
";  c #705D5C",
":  c #6A645E",
">  c #6C685D",
",  c #736B5A",
"<  c #776659",
"1  c #4C586C",
"2  c #5B5E66",
"3  c #545C69",
"4  c #665E61",
"5  c #5E6064",
"6  c #636262",
"7  c #BA633C",
"8  c #D8662F",
"9  c #EE6726",
"0  c #E76729",
"q  c #EA6728",
"w  c #EF6926",
"e  c #F36724",
"r  c #FB6721",
"t  c #FA6921",
"y  c #F56823",
"u  c #935F4D",
"i  c #95634C",
"p  c #9A7C48",
"a  c #837153",
"s  c #8A754F",
"d  c #A66246",
"f  c #778736",
"g  c #7F903B",
"h  c #82933C",
"j  c #87983F",
"k  c #AD853F",
"l  c #B78A3B",
"z  c #BDB33F",
"x  c #E79216",
"c  c #E99416",
"v  c #EF9A17",
"b  c #E79519",
"n  c #E89519",
"m  c #ED9C1C",
"M  c #F19B17",
"N  c #F29D18",
"B  c #FB9F18",
"V  c #F89D17",
"C  c #FFAE17",
"Z  c #F5A31B",
"A  c #FBA419",
"S  c #FEAB1B",
"D  c #F5A91C",
"F  c #FFB115",
"G  c #FFB31B",
"H  c #FFB91C",
"J  c #DC9B2A",
"K  c #D89A2B",
"L  c #C59134",
"P  c #CA9332",
"I  c #C18E36",
"U  c #E59721",
"Y  c #E49C26",
"T  c #E29E2B",
"R  c #EB9E23",
"E  c #E09F34",
"W  c #DEAF2C",
"Q  c #D8A835",
"!  c #C0B33E",
"~  c #D6B737",
"^  c #DBB332",
"/  c #D5B738",
"(  c #EBA223",
")  c #E5A526",
"_  c #F1A420",
"`  c #FBAE24",
"'  c #F5AB28",
"]  c #E3B32F",
"[  c #F9B129",
"{  c #E6A636",
"}  c #EFB53F",
"|  c #F4B332",
" . c #F3B538",
".. c #8B9E42",
"X. c #A48144",
"o. c #AA8341",
"O. c #8EA143",
"+. c #92A545",
"@. c #96A948",
"#. c #99AD49",
"$. c #9EB24C",
"%. c #9EB750",
"&. c #9FBB53",
"*. c #A5B94E",
"=. c #A6B84D",
"-. c #B8B543",
";. c #B7B543",
":. c #A6BC51",
">. c #AABE51",
",. c #DBA541",
"<. c #D7A74B",
"1. c #DBB357",
"2. c #CFB34B",
"3. c #EEB642",
"4. c #ECB648",
"5. c #EBB94C",
"6. c #E7B74B",
"7. c #E2BD5C",
"8. c #E7B851",
"9. c #CFB163",
"0. c #D7BD72",
"q. c #ADC254",
"w. c #A6C458",
"e. c #B0C655",
"r. c #B1C857",
"t. c #B4CB59",
"y. c #E4C159",
"u. c #DEC36D",
"i. c #D7C578",
"p. c #E1C369",
"a. c #E3C265",
"s. c #C4BF88",
"d. c #BFC28E",
"f. c #BDC597",
"g. c #BBCEA6",
"h. c #B9CDAB",
"j. c #BFD2A9",
"k. c #B5CFB1",
"l. c #B6D1B4",
"z. c #B2D5BF",
"x. c #BDD4B4",
"c. c #CCC389",
"v. c #D3CA84",
"b. c #D5CD89",
"n. c #D3D08F",
"m. c #C2C796",
"M. c #CED29E",
"N. c #D1D096",
"B. c #C2CEA5",
"V. c #C4D2A2",
"C. c #C6D6AD",
"Z. c #C8D6AB",
"A. c #CBD4A3",
"S. c #C3DBBA",
"D. c #ACD9CC",
"F. c #BBD8C2",
"G. c #BCDEC9",
"H. c #B5D9C3",
"J. c #AFDED1",
"K. c #A9DFDA",
"L. c #B5DFD3",
"P. c #BEE0CA",
"I. c #AAE1DB",
"U. c #B8E4D9",
"Y. c #A6E4E5",
"T. c #A2E7EE",
"R. c #A3E7EE",
"E. c #A2E7ED",
"W. c #A4E7EE",
"Q. c #A2E7EE",
"!. c #A5E8EF",
"~. c #A6E8EF",
"^. c #A6E8EF",
"/. c #AFEBEF",
"(. c #ADEAEE",
"). c #ADEAEF",
"_. c #ABE6EA",
"`. c #B1EAEC",
"'. c #B3E5E1",
"]. c #A7E9F0",
"[. c #A7E9F0",
"{. c #A8E9F0",
"}. c #ABEAF1",
"|. c #AAEAF1",
" X c #AAEAF1",
".X c #AFEBF0",
"XX c #ACEBF2",
"oX c #AEEBF2",
"OX c #AEECF3",
"+X c #AEECF2",
"@X c #AEECF3",
"#X c #C1DCC0",
/* pixels */
"T.T.T.T.T.T.T.T.T.T.T.T.T.T.T.T.T.T.T.T.T.T.T.T.T.T.T.T.T.T.T.T.T.T.T.T.T.T.T.T.T.T.T.T.T.T.T.T.T.T.T.T.T.T.T.T.T.T.T.T.T.T.T.T.",
"T.T.T.T.T.T.T.T.T.T.T.T.T.T.T.T.T.T.T.T.T.T.T.T.T.T.T.T.T.T.T.T.T.T.T.T.T.T.T.T.!.[.|.|.XXOXOXOXOXOXOXOXXX|.|.!.W.T.T.T.T.T.T.T.",
"T.T.T.T.T.T.T.T.T.T.T.T.T.T.T.T.T.T.T.T.T.T.T.T.T.T.T.T.T.T.T.T.T.T.T.T.T.!.|.XXOXOXOXOXOXOXOXOXOXOXOXOXOXOXOXOXOX|.|.T.T.T.T.T.",
"T.T.T.T.T.T.T.T.T.T.T.T.T.T.T.T.T.T.T.T.T.T.T.T.T.T.T.T.T.T.T.T.T.T.!.|.OXOXOXOXOXOXOXOXOXOXOXOXOXOXOXOXOXOXOXOXOXOXOXOXXX!.T.T.",
"T.T.T.T.T.T.T.T.T.T.T.T.T.T.T.T.T.T.T.T.T.T.T.T.T.T.T.T.T.T.T.T.!.XXOXOXOXOXOXOXOXOXOXOXOXOXOXOXOXOXOXOXOXOXOXOXOXOXOXOXOXOXXX[.",
"|.!.T.T.T.T.T.T.T.T.T.T.T.T.T.T.T.T.T.T.T.T.T.T.T.T.T.T.T.T.!.|.OXOXOXOXOXOXOXOXOXOXOXOXOXOXOXOXOXOXOXOXOXOXOXOXOXOXOXOXOXOXOXOX",
"OXOXXX!.T.T.T.T.T.T.T.T.T.T.T.T.T.T.T.T.T.T.T.T.T.T.T.T.T.|.OXOXOXOXOXOXOXOXOXOXOXOXOXOXOXOXOXOXOXOXOXOXOXOXOXOXOXOXOXOXOXOXOXOX",
"OXOXOXOXOX|.!.T.T.T.T.T.T.T.T.T.T.T.T.T.T.T.T.T.T.T.!.XXOXOXOXOXOXOXOXOXOXOXOXOXOXOXOXOXOXOXOXOXOXOXOXOXOXOXOXOXOXOXOXOXOXOXOXOX",
"OXOXOXOXOXOXOXOX|.[.W.T.T.T.T.T.T.T.T.T.T.T.!.|.|.OXOXOXOXOXOXOXOXOXOXOXOXOXOXOXOXOXOXOXOXOXOXOXOXOXOXOXOXOXOXOXOXOXOXOXOXOXOXOX",
"OXOXOXOXOXOXOXOXOXOXOXOX|.|.|.|.|.|.|.|.|.OXOXOXOXOXOXOXOXOXOXOXOXOXOXOXOXOXOXOXOXOXOXOXOXOXOXOXOXOXOXOXOXOXOXOXOXOXOXOXOXOXOXOX",
"OXOXOXOXOXOXOXOXOXOXOXOXOXOXOXOXOXOXOXOXOXOXOXOXOXOXOXOXOXOXOXOXOXOXOXOXOXOXOXOXOXOX|.|.|.|.|.|.|.|.|.|.|.|.|.OXOXOXOXOXOXOXOXOX",
"OXOXOXOXOXOXOXOXOXOXOXOXOXOXOXOXOXOXOXOXOXOXOXOXOXOXOXOXOXOXOXOXOXOXOXOXOXOX|.!.W.T.T.T.T.T.T.T.T.T.T.T.T.T.T.T.W.[.|.XXOXOXOXOX",
"OXOXOXOXOXOXOXOXOXOXOXOXOXOXOXOXOXOXOXOXOXOXOXOXOXOXOXOXOXOXOXOXOXOXOXXX[.T.T.T.T.T.T.T.T.T.T.T.T.T.T.T.T.T.T.T.T.T.T.T.!.XXOXOX",
"OXOXOXOXOXOXOXOXOXOXOXOXOXOXOXOXOXOXOXOXOXOXOXOXOXOXOXOXOXOXOXOXXX|.W.T.T.T.T.T.T.T.T.T.T.T.T.T.T.T.T.T.T.T.T.T.T.T.T.T.T.T.!.|.",
"!.|.XXOXOXOXOXOXOXOXOXOXOXOXOXOXOXOXOXOXOXOXOXOXOXOXOXOXOXOX|.!.T.T.T.T.T.T.T.T.T.T.W.!.[.|.|.|.|.|.|.|.[.!.T.T.T.T.T.T.T.T.T.T.",
"T.T.T.!.XXOXOXOXOXOXOXOXOXOXOXOXOXOXOXOXOXOXOXOXOXOXOXOX|.T.T.T.T.T.T.T.T.T.T.!.|.XXOXOXOXOXOXOXOXOXOXOXOXOXOXXX|.!.T.T.T.T.T.T.",
"T.T.T.T.T.T.[.|.XXOXOXOXOXOXOXOXOXXXXX(.(.(.(.(.(.(.W.E.E.E.E.E.E.E.E.W.(.(.(.(.(.(.(.(.(.(.XXOXOXOXOXOXOXOXOXOXOXOXOX|.!.T.T.T.",
"T.T.T.T.T.T.T.T.T.T.!.|.|.|.|.|.(.|.|.|.|.|.!.T.T.T.T.T.T.T.T.T.T.[.|.OXOXOXOXOXOXOXOXOXOXOXOXOXXXOXOXOXOXOXOXOXOXOXOXOXOX|.|.T.",
"!.T.T.T.T.T.T.T.T.T.T.T.T.T.T.T.T.K.z.k.g.h.h.g.j.j.j.j.j.j.j.C.C.C.C.C.C.C.C.C.Z.C.C.Z.C.S.G.`.OXOXOXOXOXOXOXOXOXOXOXOXOXOXOXXX",
"OXXX!.T.T.T.T.T.T.T.T.T.T.T.T.T.f.{ b M A B S G H H H H H H H H H H H H H H H H H H H H H G ` 5.P.OXOXOXOXOXOXOXOXOXOXOXOXOXOXOX",
"OXOXOXXX|.T.T.T.T.T.T.T.T.T.T.l.v M c b b m S S S S S S S S S S S S S S S S S S S S ` S S S S H 4.`.OXXXOXOXOXOXOXOXOXOXOXOXOXOX",
"OXOXOXOXOXOX|.|.W.T.T.T.T.T.Y.,.M b c c c S S S ] ! -.;.-.-.-.-.;.-.-.-.-.-.-.-.-.-.-.;.-.z Q S G M.OXXXOXOXOXOXOXOXOXOXOXOXOXOX",
"OXOXOXOXOXOXOXOXOXXX|.|.W.!.H.b c c c c v S S S =.%.%.%.%.%.%.%.%.%.%.%.%.%.%.%.%.%.%.%.%.%.%.W G u.OXOXOXOXOXOXOXOXOXOXOXOXOXOX",
"OXOXOXOXOXOXOXOXOXOXOXOXXXOXF.b c c c x M S S D =.>.>.>.>.>.>.>.>.>.>.>.>.>.>.>.>.>.>.>.>.>.&.^ G p.OXXXOXOXOXOXOXOXOXOXOXOXOXOX",
"OXOXOXOXOXOXOXOXOXOXOXOXXXOXF.b c c c x M S S S >.q.q.q.q.r.r.q.q.q.q.q.q.q.q.q.q.r.r.q.q.q.w.^ G p.OXXXOXOXOXOXOXOXOXOXOXOXOXOX",
"OXOXOXOXOXOXOXOXOXOXOXOXXXOXF.b c c c x M S S S q.q.q.r.$.+.#.q.q.q.q.q.q.q.q.q.*.+.#.r.q.q.w./ G p.OXXXOXOXOXOXOXOXOXOXOXOXOXOX",
"OXOXOXOXOXOXOXOXOXOXOXOXXXOXF.b c c c x M S S S q.q.q.f o X # >.q.q.q.q.q.q.q.r.f X o $ :.q.w.~ G p.OXXXOXOXOXOXOXOXOXOXOXOXOXOX",
"OXOXOXOXOXOXOXOXOXOXOXOXXXOXF.b c c c x M S S S q.q.q.h ..#.$.q.q.q.q.q.q.q.q.q.$.+.#.g *.q.w.~ G p.OXXXOXOXOXOXOXOXOXOXOXOXOXOX",
"OXOXOXOXOXOXOXOXOXOXOXOXXXOXF.b c c c x M S S S q.q.q.t.q...#.r.q.q.q.q.q.q.q.q.r.*.@.r.r.q.w.~ G p.OXXXOXOXOXOXOXOXOXOXOXOXOXOX",
"OXOXOXOXOXOXOXOXOXOXOXOXXXOXF.b c c c x M S S S q.q.q.$.$   o @.q.q.q.q.q.q.q.q.g O X & q.q.w.~ G p.OXXXOXOXOXOXOXOXOXOXOXOXOXOX",
"OXOXOXOXOXOXOXOXOXOXOXOXXXOXF.b c c c x M S S S q.q.r.h   o   * r.q.q.q.q.q.q.>.@ . X X :.q.w.~ G p.OXXXOXOXOXOXOXOXOXOXOXOXOXOX",
"OXOXOXOXOXOXOXOXOXOXOXOXXXOXF.b c c c x M S S S q.q.q.$.+ X o +.t.q.q.q.q.q.q.t.f X X % q.q.w.~ G p.OXXXOXOXOXOXOXOXOXOXOXOXOXOX",
"OXOXOXOXOXOXOXOXOXOXOXOXXXOXF.b c c c x M S S S q.q.q.r.$.g #.r.O.& % % % % & j q...j q.q.q.w.] F p.OXXXOXOXOXOXOXOXOXOXOXOXOXOX",
"OXOXOXOXOXOXOXOXOXOXOXOXXXOXF.b c c c x M S S S q.q.q.q.q.r.q.r.=   X X X X   # q.r.r.q.q.q.w.] F p.OXXXOXOXOXOXOXOXOXOXOXOXOXOX",
"OXOXOXOXOXOXOXOXOXOXOXOXXXOXF.b c c c x M S S S q.q.q.q.q.q.q.q.=.+ X o o X o +.r.q.q.q.q.q.w.] F p.OXXXOXOXOXOXOXOXOXOXOXOXOXOX",
"OXOXOXOXOXOXOXOXOXOXOXOXXXOXF.b c c c x M S S S q.q.q.q.q.q.q.q.r.+.@ o o + +.r.q.q.q.q.q.q.w.] F p.OXXXOXOXOXOXOXOXOXOXOXOXOXOX",
"OXOXOXOXOXOXOXOXOXOXOXOXXXOXF.b c c c x M S S S q.q.q.q.q.q.q.q.q.r.>.@.+.:.r.q.q.q.q.q.q.q.w.] F p.OXXXOXOXOXOXOXOXOXOXOXOXOXOX",
"OXOXOXOXOXOXOXOXOXOXOXOX`.XXF.b c c c x M S S S q.q.q.q.q.q.q.q.q.q.q.r.r.q.q.q.q.q.q.q.q.q.w.] C 5.XXOXOXOXOXOXOXOXOXOXOXOXOXOX",
"OXOXOXOXOXOXOXOXOXOXOXOXOXOXx.n c c c x M S S S e.q.q.q.q.q.q.q.q.q.q.q.q.q.q.q.q.q.q.q.q.q.w.] C 3.(.OXOXOXOXOXOXOXOXOXOXOXOXOX",
"OXOXOXOXOXOXOXOXOXXXOXOXA.7.{ v c c c x M S S S ^ q.e.q.q.q.q.q.q.q.q.q.q.q.q.q.q.q.q.q.e.q.2.D G 4.T.T.T.T.T.|.|.XXOXOXOXOXOXOX",
"OXOXOXOXOXOXOXOXXXOXU.y.S S A v c c c x M S S S S S S D D D D S S S S S S S D D D D S S S S S S S [ K.T.E.T.T.T.T.T.W.|.XXOXOXOX",
"OXOXOXOXOXOXOXXXOXG.| G A Z N v c c c x M S S S S S S C F F C S S S S S S S C F F C S S S S S S S S 1.Y.T.T.E.E.T.T.T.T.T.!.|.OX",
"|.XXOXOXOXOXXXXXU. .G S A A N n c c c x M S S S S S S J P P J S S S S S S S J P P J S S S S S S S D A 8.H.T.T.T.T.T.T.T.T.T.T.!.",
"T.T.|.XXOXOXXXOX5.H S S A Z 1.Y c c c x M S S S S S S a 3 1 a S D S S S C l 5 2 2 6 P C S S S S S S Z S ' 5.y.v.W.T.T.T.T.T.T.T.",
"T.T.T.T.!.(.XXN.G S S S S ' B.b c c c x M S S S S S F p 2 6 a S F F S C Y : 7 t t d 6 ( F S S S S S A A S G G H 5.Y.T.T.T.T.T.T.",
"T.T.T.T.E.T.J.` S S S S G 4.F.b c c c x M S S S D J ( p 2 6 > X.p p D F P ; t y r w 4 X.J _ S S S S S S S S S S H v.T.T.T.T.T.T.",
"T.T.T.T.T.T.u.H S S S S G 3.l.b c c c x M S S C k 2 6 6 6 6 6 5 2 5 _ F P - y r r 9 : : < : L C S S S S S S S S S | W.T.T.T.T.T.",
"T.T.T.T.T.Y.` S S S S S S [ m.U c c c x M S S S k 2 6 6 6 6 6 6 5 5 J C _ , u 9 9 i i q q d > ( S S S S S S S S S ` Y.T.T.T.T.T.",
"T.T.T.T.T.Y.` S S S S S S [ m.U c c c x M S S F I 1 2 2 6 6 6 , < s ( S C K , : : 6 8 r r t - L F ' S S S S S S G 5.(.T.T.T.T.T.",
"T.T.T.T.T.T.8.G S S S S G | l.b c c c x M S S S ( o.L X.6 6 6 P D S S S S C _ J l 6 e r r t - P F 5.u.H S S S S G A.OXOXXX!.T.T.",
"T.T.T.T.E.T.x.G G S S S H V.D.b c c c x M S S S S C F K 6 6 2 K F S S S S S S F A , u 0 0 i : ( G 4.'.a.G H H G b.OXOXOXOXOXXX[.",
"|.!.T.T.T.T.T.V.3.S S ` i.E.z.b c c c x M S S S S S S T 6 6 3 P C S S S S S S S S K > : : : P S S 3.OXOXZ.b.n.S.OXXXOXOXOXOXOXOX",
"OXOXXX!.T.T.T.T.E.J.H.I.T.T.I.Q M n c c c S S S S S S S T J Y D S S S S S S S S S C ( L L ( C S H i.OXXXOXOXOXOXOXOXOXOXOXOXOXOX",
"OXOXOXOXOX|.!.T.T.T.T.T.T.E.T.s.V c b b b Z S S S S S S S S S S S S S S S S S S S S S C C S S S | P.XXXXXXXXXXXXOXOXOXOXOXOXOXOX",
"OXOXOXOXOXOXOXOX|.!.W.T.T.T.T.T.d.T A A B V N S S S G H H H H H H H H H H H H S M S S S S S S G 7.OXOXOXOXOXOXOXOXOXOXOXOXOXOXOX",
"OXOXOXOXOXOXOXOXXXOXOXOX|.|.|.|.|.L.x.j.B.c.Z S S S a.Z.Z.Z.Z.Z.Z.Z.Z.Z.Z.Z.Z.{ A S S S S S A A S i.OXOXOXOXOXOXOXOXOXOXOXOXOXOX",
"OXOXOXOXOXOXOXOXOXOXOXOXOXOXOXXXXXOXG.0.{ ' S S S S #XOXOXOXOXOXOXOXOXOXOXOX_.{ G S S S S v c c c M m.|.~.|.|.OXOXOXOXOXOXOXOXOX",
"OXOXOXOXOXOXOXOXOXOXOXOXOXOXXXOXXXc.V A S S S S S  .`.(.(.(.(.(.(.(.(.(.`.(.'.} G S S A c c c c b M m.T.E.T.T.T.W.[.|.XXOXOXOXOX",
"OXOXOXOXOXOXOXOXOXOXOXOXOXOXXXOXL.m Z Z S S S S S ` G.OXOXOXOXOXOXOXOXXX(.T.I.| S S A c c c c b M ,.Y.T.T.T.T.T.T.T.T.T.!.XXOXOX",
"OXOXOXOXOXOXOXOXOXOXOXOXOXOXXXXX`.8.S D S S S S S H u.OX(.OXOXOXXX|.W.T.T.T.J.| G Z c c c c b M R z.T.T.T.T.T.T.T.T.T.T.T.T.!.|.",
"!.|.XXOXOXOXOXOXOXOXOXOXOXOXOXOXOXU.3.H S S S S S G 5.XXXXOX|.!.T.T.T.T.T.T.I. .A b c c b b M T k.T.T.T.T.T.T.T.T.T.T.T.T.T.T.T.",
"T.T.T.!.XXOXOXOXOXOXOXOXOXOXOXOXXXOXU.p.G G S S S G 4.`.|.T.T.T.T.T.T.T.T.E.T.7.A b n b M M 1.D.T.T.T.T.T.T.T.T.T.T.T.T.T.T.T.T.",
"T.T.T.T.T.T.[.|.XXOXOXOXOXOXOXOXOXOXOXOXZ.4.G G S H 7.T.T.T.T.T.T.T.T.T.T.E.T.g.M c v M ,.f.T.T.T.T.T.T.T.T.T.T.T.T.T.T.T.T.T.T.",
"T.T.T.T.T.T.T.T.T.T.!.|.|.|.|.|.|.|.(.|.|._.V.5.S S j.T.T.T.T.T.T.T.T.T.T.T.T.E.9.E <.m.Y.T.T.E.T.T.T.T.T.T.T.T.T.T.T.T.T.T.T.T."
};
