/* XPM */
static const char *wall[] = {
/* columns rows colors chars-per-pixel */
"64 64 21 1 ",
"  c #A6713B",
". c #A7713B",
"X c #A9733C",
"o c #AB743D",
"O c #AD763E",
"+ c #B0783F",
"@ c #A57746",
"# c #B57C41",
"$ c #B97F43",
"% c #BB8044",
"& c #B9864E",
"* c #A4865C",
"= c #A5875C",
"- c #A58E68",
"; c #B59A6F",
": c #A49D7E",
"> c #B3A079",
", c #B0AD8F",
"< c #A2D9D8",
"1 c #A5DBD9",
"2 c #A2E7EE",
/* pixels */
"21,;;%%%%%%%%%%%%%%%%%%%%%%%%%%%%%%%%%%%%%%%%%%%%%%%%%%%%%%;;,12",
"1&%%%%%%%%%%%%%%%%%%%%%%%%%%%%%%%%%%%%%%%%%%%%%%%%%%%%%%%%%%%%&1",
">$+oo                                                      oo+$>",
"$X                                                            X$",
"O                                                              O",
"     #%%%%%%%%%%%%%      %%%%%%%%%%%%%%%%%%%%%%%%%%%%%%%%%#     ",
"     %%%%%%%%%%%%%%      %%%%%%%%%%%%%%%%%%%%%%%%%%%%%%%%%%     ",
"     %%%%%%%%%%%%%%      %%%%%%%%%%%%%%%%%%%%%%%%%%%%%%%%%%     ",
"     %%%%%%%%%%%%%%      %%%%%%%%%%%%%%%%%%%%%%%%%%%%%%%%%%     ",
"     %%%%%%%%%%%%%%      %%%%%%%%%%%%%%%%%%%%%%%%%%%%%%%%%%     ",
"     %%%%%%%%%%%%%%      %%%%%%%%%%%%%%%%%%%%%%%%%%%%%%%%%%     ",
"     %%%%%%%%%%%%%%      %%%%%%%%%%%%%%%%%%%%%%%%%%%%%%%%%%     ",
"     %%%%%%%%%%%%%%      %%%%%%%%%%%%%%%%%%%%%%%%%%%%%%%%%%     ",
"     %%%%%%%%%%%%%%      %%%%%%%%%%%%%%%%%%%%%%%%%%%%%%%%%%     ",
"     %%%%%%%%%%%%%%      %%%%%%%%%%%%%%%%%%%%%%%%%%%%%%%%%%     ",
"     %%%%%%%%%%%%%%      %%%%%%%%%%%%%%%%%%%%%%%%%%%%%%%%%%     ",
"     %%%%%%%%%%%%%%      %%%%%%%%%%%%%%%%%%%%%%%%%%%%%%%%%%     ",
"     %%%%%%%%%%%%%%      %%%%%%%%%%%%%%%%%%%%%%%%%%%%%%%%%%     ",
"     %%%%%%%%%%%%%%      %%%%%%%%%%%%%%%%%%%%%%%%%%%%%%%%%%     ",
"     %%%%%%%%%%%%%%      %%%%%%%%%%%%%%%%%%%%%%%%%%%%%%%%%%     ",
"     %%%%%%%%%%%%%%      %%%%%%%%%%%%%%%%%%%%%%%%%%%%%%%%%%     ",
"     %%%%%%%%%%%%%%      %%%%%%%%%%%%%%%%%%%%%%%%%%%%%%%%%%     ",
"     %%%%%%%%%%%%%%      %%%%%%%%%%%%%%%%%%%%%%%%%%%%%%%%%%     ",
"     %%%%%%%%%%%%%%      %%%%%%%%%%%%%%%%%%%%%%%%%%%%%%%%%%     ",
"     %%%%%%%%%%%%%%      %%%%%%%%%%%%%%%%%%%%%%%%%%%%%%%%%%     ",
"     %%%%%%%%%%%%%%      %%%%%%%%%%%%%%%%%%%%%%%%%%%%%%%%%%     ",
"     %%%%%%%%%%%%%%      %%%%%%%%%%%%%%%%%%%%%%%%%%%%%%%%%%     ",
"     %%%%%%%%%%%%%%      %%%%%%%%%%%%%%%%%%%%%%%%%%%%%%%%%%     ",
"     %%%%%%%%%%%%%%      %%%%%%%%%%%%%%%%%%%%%%%%%%%%%%%%%%     ",
"                                                                ",
"                                                                ",
"                                                                ",
"                                                                ",
"                                                                ",
"                                                                ",
"     %%%%%%%%%%%%%%%%%%%%%%%%%%%%%%%%%%      %%%%%%%%%%%%%%     ",
"     %%%%%%%%%%%%%%%%%%%%%%%%%%%%%%%%%%      %%%%%%%%%%%%%%     ",
"     %%%%%%%%%%%%%%%%%%%%%%%%%%%%%%%%%%      %%%%%%%%%%%%%%     ",
"     %%%%%%%%%%%%%%%%%%%%%%%%%%%%%%%%%%      %%%%%%%%%%%%%%     ",
"     %%%%%%%%%%%%%%%%%%%%%%%%%%%%%%%%%%      %%%%%%%%%%%%%%     ",
"     %%%%%%%%%%%%%%%%%%%%%%%%%%%%%%%%%%      %%%%%%%%%%%%%%     ",
"     %%%%%%%%%%%%%%%%%%%%%%%%%%%%%%%%%%      %%%%%%%%%%%%%%     ",
"     %%%%%%%%%%%%%%%%%%%%%%%%%%%%%%%%%%      %%%%%%%%%%%%%%     ",
"     %%%%%%%%%%%%%%%%%%%%%%%%%%%%%%%%%%      %%%%%%%%%%%%%%     ",
"     %%%%%%%%%%%%%%%%%%%%%%%%%%%%%%%%%%      %%%%%%%%%%%%%%     ",
"     %%%%%%%%%%%%%%%%%%%%%%%%%%%%%%%%%%      %%%%%%%%%%%%%%     ",
"     %%%%%%%%%%%%%%%%%%%%%%%%%%%%%%%%%%      %%%%%%%%%%%%%%     ",
"     %%%%%%%%%%%%%%%%%%%%%%%%%%%%%%%%%%      %%%%%%%%%%%%%%     ",
"     %%%%%%%%%%%%%%%%%%%%%%%%%%%%%%%%%%      %%%%%%%%%%%%%%     ",
"     %%%%%%%%%%%%%%%%%%%%%%%%%%%%%%%%%%      %%%%%%%%%%%%%%     ",
"     %%%%%%%%%%%%%%%%%%%%%%%%%%%%%%%%%%      %%%%%%%%%%%%%%     ",
"     %%%%%%%%%%%%%%%%%%%%%%%%%%%%%%%%%%      %%%%%%%%%%%%%%     ",
"     %%%%%%%%%%%%%%%%%%%%%%%%%%%%%%%%%%      %%%%%%%%%%%%%%     ",
"     %%%%%%%%%%%%%%%%%%%%%%%%%%%%%%%%%%      %%%%%%%%%%%%%%     ",
"     %%%%%%%%%%%%%%%%%%%%%%%%%%%%%%%%%%      %%%%%%%%%%%%%%     ",
"     %%%%%%%%%%%%%%%%%%%%%%%%%%%%%%%%%%      %%%%%%%%%%%%%%     ",
"     %%%%%%%%%%%%%%%%%%%%%%%%%%%%%%%%%%      %%%%%%%%%%%%%%     ",
"     %%%%%%%%%%%%%%%%%%%%%%%%%%%%%%%%%%      %%%%%%%%%%%%%%     ",
"     $%%%%%%%%%%%%%%%%%%%%%%%%%%%%%%%%%      %%%%%%%%%%%%%$     ",
"                                                                ",
"=                                                              =",
":                                                              :",
"<@                                                            @<",
"2<-                                                          -<2"
};
